<mxfile host="65bd71144e">
    <diagram id="aUQ94GuYCvivdaW4peMD" name="Page-1">
        <mxGraphModel dx="1536" dy="643" grid="1" gridSize="10" guides="1" tooltips="1" connect="1" arrows="1" fold="1" page="1" pageScale="1" pageWidth="850" pageHeight="1100" math="0" shadow="0">
            <root>
                <mxCell id="0"/>
                <mxCell id="1" parent="0"/>
                <mxCell id="4" value="" style="edgeStyle=orthogonalEdgeStyle;rounded=0;orthogonalLoop=1;jettySize=auto;html=1;fontStyle=0;fontSize=12;strokeWidth=2;entryX=0;entryY=0.5;entryDx=0;entryDy=0;" parent="1" source="2" target="3" edge="1">
                    <mxGeometry relative="1" as="geometry"/>
                </mxCell>
                <mxCell id="18" style="edgeStyle=orthogonalEdgeStyle;rounded=0;orthogonalLoop=1;jettySize=auto;html=1;entryX=0;entryY=0.5;entryDx=0;entryDy=0;fontSize=12;strokeWidth=2;" parent="1" source="2" target="6" edge="1">
                    <mxGeometry relative="1" as="geometry"/>
                </mxCell>
                <mxCell id="20" style="edgeStyle=orthogonalEdgeStyle;rounded=0;orthogonalLoop=1;jettySize=auto;html=1;entryX=0;entryY=0.5;entryDx=0;entryDy=0;fontSize=12;strokeWidth=2;" parent="1" source="2" target="8" edge="1">
                    <mxGeometry relative="1" as="geometry"/>
                </mxCell>
                <mxCell id="21" style="edgeStyle=orthogonalEdgeStyle;rounded=0;orthogonalLoop=1;jettySize=auto;html=1;entryX=0;entryY=0.5;entryDx=0;entryDy=0;fontSize=12;strokeWidth=2;" parent="1" source="2" target="9" edge="1">
                    <mxGeometry relative="1" as="geometry"/>
                </mxCell>
                <mxCell id="22" style="edgeStyle=orthogonalEdgeStyle;rounded=0;orthogonalLoop=1;jettySize=auto;html=1;entryX=0;entryY=0.5;entryDx=0;entryDy=0;fontSize=12;strokeWidth=2;" parent="1" source="2" target="10" edge="1">
                    <mxGeometry relative="1" as="geometry"/>
                </mxCell>
                <mxCell id="23" style="edgeStyle=orthogonalEdgeStyle;rounded=0;orthogonalLoop=1;jettySize=auto;html=1;entryX=0;entryY=0.5;entryDx=0;entryDy=0;fontSize=12;strokeWidth=2;" parent="1" source="2" target="11" edge="1">
                    <mxGeometry relative="1" as="geometry"/>
                </mxCell>
                <mxCell id="25" style="edgeStyle=orthogonalEdgeStyle;rounded=0;orthogonalLoop=1;jettySize=auto;html=1;entryX=0;entryY=0.5;entryDx=0;entryDy=0;fontSize=12;strokeWidth=2;" parent="1" source="2" target="7" edge="1">
                    <mxGeometry relative="1" as="geometry"/>
                </mxCell>
                <mxCell id="27" style="edgeStyle=orthogonalEdgeStyle;rounded=0;orthogonalLoop=1;jettySize=auto;html=1;entryX=0;entryY=0.5;entryDx=0;entryDy=0;fontSize=12;strokeWidth=2;" parent="1" source="2" target="26" edge="1">
                    <mxGeometry relative="1" as="geometry"/>
                </mxCell>
                <mxCell id="32" style="edgeStyle=orthogonalEdgeStyle;rounded=0;orthogonalLoop=1;jettySize=auto;html=1;entryX=0;entryY=0.5;entryDx=0;entryDy=0;strokeWidth=2;" edge="1" parent="1" source="2" target="31">
                    <mxGeometry relative="1" as="geometry"/>
                </mxCell>
                <mxCell id="2" value="interface" style="rounded=1;whiteSpace=wrap;html=1;strokeWidth=2;fontStyle=0;fillColor=#ffe6cc;strokeColor=#d79b00;" parent="1" vertex="1">
                    <mxGeometry x="40" y="255" width="100" height="50" as="geometry"/>
                </mxCell>
                <mxCell id="3" value="BeanFactory" style="rounded=1;whiteSpace=wrap;html=1;strokeWidth=2;fontStyle=0" parent="1" vertex="1">
                    <mxGeometry x="230" y="80" width="150" height="40" as="geometry"/>
                </mxCell>
                <mxCell id="6" value="Aware&lt;span style=&quot;color: rgba(0 , 0 , 0 , 0) ; font-family: monospace ; font-size: 0px&quot;&gt;%3CmxGraphModel%3E%3Croot%3E%3CmxCell%20id%3D%220%22%2F%3E%3CmxCell%20id%3D%221%22%20parent%3D%220%22%2F%3E%3CmxCell%20id%3D%222%22%20value%3D%22BeanFactory%22%20style%3D%22rounded%3D1%3BwhiteSpace%3Dwrap%3Bhtml%3D1%3BstrokeWidth%3D2%3BfontStyle%3D0%22%20vertex%3D%221%22%20parent%3D%221%22%3E%3CmxGeometry%20x%3D%22270%22%20y%3D%2280%22%20width%3D%22150%22%20height%3D%2240%22%20as%3D%22geometry%22%2F%3E%3C%2FmxCell%3E%3C%2Froot%3E%3C%2FmxGraphModel%3E&lt;/span&gt;" style="rounded=1;whiteSpace=wrap;html=1;strokeWidth=2;fontStyle=0" parent="1" vertex="1">
                    <mxGeometry x="230" y="140" width="150" height="40" as="geometry"/>
                </mxCell>
                <mxCell id="7" value="BeanDefinition" style="rounded=1;whiteSpace=wrap;html=1;strokeWidth=2;fontStyle=0" parent="1" vertex="1">
                    <mxGeometry x="230" y="200" width="150" height="40" as="geometry"/>
                </mxCell>
                <mxCell id="29" value="" style="edgeStyle=orthogonalEdgeStyle;rounded=0;orthogonalLoop=1;jettySize=auto;html=1;fontSize=12;strokeWidth=2;" parent="1" source="8" target="28" edge="1">
                    <mxGeometry relative="1" as="geometry"/>
                </mxCell>
                <mxCell id="8" value="BeanDefinitionReader" style="rounded=1;whiteSpace=wrap;html=1;strokeWidth=2;fontStyle=0" parent="1" vertex="1">
                    <mxGeometry x="230" y="260" width="150" height="40" as="geometry"/>
                </mxCell>
                <mxCell id="9" value="BeanFactoryPostProcessor" style="rounded=1;whiteSpace=wrap;html=1;strokeWidth=2;fontStyle=0" parent="1" vertex="1">
                    <mxGeometry x="230" y="320" width="150" height="40" as="geometry"/>
                </mxCell>
                <mxCell id="10" value="BeanPostProcessor" style="rounded=1;whiteSpace=wrap;html=1;strokeWidth=2;fontStyle=0" parent="1" vertex="1">
                    <mxGeometry x="230" y="380" width="150" height="40" as="geometry"/>
                </mxCell>
                <mxCell id="13" value="" style="edgeStyle=orthogonalEdgeStyle;rounded=0;orthogonalLoop=1;jettySize=auto;html=1;fontSize=12;strokeWidth=2;" parent="1" source="11" target="12" edge="1">
                    <mxGeometry relative="1" as="geometry"/>
                </mxCell>
                <mxCell id="11" value="Environment" style="rounded=1;whiteSpace=wrap;html=1;strokeWidth=2;fontStyle=0" parent="1" vertex="1">
                    <mxGeometry x="230" y="440" width="150" height="40" as="geometry"/>
                </mxCell>
                <mxCell id="15" value="" style="edgeStyle=orthogonalEdgeStyle;rounded=0;orthogonalLoop=1;jettySize=auto;html=1;fontSize=12;strokeWidth=2;entryX=0;entryY=0.5;entryDx=0;entryDy=0;" parent="1" source="12" target="14" edge="1">
                    <mxGeometry relative="1" as="geometry">
                        <mxPoint x="640" y="420" as="targetPoint"/>
                    </mxGeometry>
                </mxCell>
                <mxCell id="17" style="edgeStyle=orthogonalEdgeStyle;rounded=0;orthogonalLoop=1;jettySize=auto;html=1;fontSize=12;strokeWidth=2;entryX=0;entryY=0.5;entryDx=0;entryDy=0;" parent="1" source="12" target="16" edge="1">
                    <mxGeometry relative="1" as="geometry">
                        <mxPoint x="640" y="490" as="targetPoint"/>
                    </mxGeometry>
                </mxCell>
                <mxCell id="12" value="StandardEnvironment" style="rounded=1;whiteSpace=wrap;html=1;strokeWidth=2;fontStyle=0" parent="1" vertex="1">
                    <mxGeometry x="430" y="440" width="150" height="40" as="geometry"/>
                </mxCell>
                <mxCell id="14" value="System.getEnv()" style="rounded=1;whiteSpace=wrap;html=1;strokeWidth=2;fontStyle=0" parent="1" vertex="1">
                    <mxGeometry x="640" y="410" width="150" height="40" as="geometry"/>
                </mxCell>
                <mxCell id="16" value="System.getPrperties()" style="rounded=1;whiteSpace=wrap;html=1;strokeWidth=2;fontStyle=0" parent="1" vertex="1">
                    <mxGeometry x="640" y="470" width="150" height="40" as="geometry"/>
                </mxCell>
                <mxCell id="24" value="&lt;b&gt;执行时机在 refresh 之前&lt;/b&gt;" style="text;html=1;align=center;verticalAlign=middle;resizable=0;points=[];autosize=1;strokeColor=none;fontSize=12;" parent="1" vertex="1">
                    <mxGeometry x="430" y="480" width="150" height="20" as="geometry"/>
                </mxCell>
                <mxCell id="26" value="FactoryBean" style="rounded=1;whiteSpace=wrap;html=1;strokeWidth=2;fontStyle=0" parent="1" vertex="1">
                    <mxGeometry x="230" y="500" width="150" height="40" as="geometry"/>
                </mxCell>
                <mxCell id="28" value="BeanDefinitionRegister" style="rounded=1;whiteSpace=wrap;html=1;strokeWidth=2;fontStyle=0" parent="1" vertex="1">
                    <mxGeometry x="460" y="260" width="150" height="40" as="geometry"/>
                </mxCell>
                <mxCell id="30" value="&lt;b&gt;对BeanDefinition CRUD&lt;/b&gt;" style="text;html=1;align=center;verticalAlign=middle;resizable=0;points=[];autosize=1;strokeColor=none;fontSize=12;" parent="1" vertex="1">
                    <mxGeometry x="460" y="305" width="150" height="20" as="geometry"/>
                </mxCell>
                <mxCell id="34" value="" style="edgeStyle=orthogonalEdgeStyle;rounded=0;orthogonalLoop=1;jettySize=auto;html=1;strokeWidth=2;" edge="1" parent="1" source="31" target="33">
                    <mxGeometry relative="1" as="geometry"/>
                </mxCell>
                <mxCell id="31" value="ResourceLoader" style="rounded=1;whiteSpace=wrap;html=1;strokeWidth=2;fontStyle=0" vertex="1" parent="1">
                    <mxGeometry x="230" y="560" width="150" height="40" as="geometry"/>
                </mxCell>
                <mxCell id="33" value="getResource &amp;amp; getClassLoader" style="rounded=1;whiteSpace=wrap;html=1;strokeWidth=2;fontStyle=0" vertex="1" parent="1">
                    <mxGeometry x="440" y="560" width="190" height="40" as="geometry"/>
                </mxCell>
            </root>
        </mxGraphModel>
    </diagram>
</mxfile>
